<svg width="512" height="512" version="1.1" xmlns="http://www.w3.org/2000/svg" desc="Created with imagetracer.js version 1.2.6" ><path fill="rgb(187,177,130)" stroke="rgb(187,177,130)" stroke-width="1" opacity="1" d="M 373.5 66 L 372.5 68 L 373.5 66 Z " /><path fill="rgb(187,177,130)" stroke="rgb(187,177,130)" stroke-width="1" opacity="1" d="M 390.5 69 L 391.5 71 L 390.5 69 Z " /><path fill="rgb(187,177,130)" stroke="rgb(187,177,130)" stroke-width="1" opacity="1" d="M 362.5 72 L 361.5 74 L 362.5 72 Z " /><path fill="rgb(187,177,130)" stroke="rgb(187,177,130)" stroke-width="1" opacity="1" d="M 353.5 77 L 352.5 79 L 353.5 77 Z " /><path fill="rgb(187,177,130)" stroke="rgb(187,177,130)" stroke-width="1" opacity="1" d="M 342.5 83 L 341.5 85 L 342.5 83 Z " /><path fill="rgb(187,177,130)" stroke="rgb(187,177,130)" stroke-width="1" opacity="1" d="M 333.5 88 L 332.5 90 L 333.5 88 Z " /><path fill="rgb(187,177,130)" stroke="rgb(187,177,130)" stroke-width="1" opacity="1" d="M 322.5 94 L 321.5 96 L 322.5 94 Z " /><path fill="rgb(187,177,130)" stroke="rgb(187,177,130)" stroke-width="1" opacity="1" d="M 407.5 101 L 408 104.5 L 407 104.5 L 407.5 101 Z " /><path fill="rgb(187,177,130)" stroke="rgb(187,177,130)" stroke-width="1" opacity="1" d="M 302.5 105 L 301.5 107 L 302.5 105 Z " /><path fill="rgb(187,177,130)" stroke="rgb(187,177,130)" stroke-width="1" opacity="1" d="M 405.5 109 L 402.5 113 L 405.5 109 Z " /><path fill="rgb(187,177,130)" stroke="rgb(187,177,130)" stroke-width="1" opacity="1" d="M 293.5 110 L 292.5 112 L 293.5 110 Z " /><path fill="rgb(187,177,130)" stroke="rgb(187,177,130)" stroke-width="1" opacity="1" d="M 273.5 121 L 272.5 123 L 273.5 121 Z " /><path fill="rgb(187,177,130)" stroke="rgb(187,177,130)" stroke-width="1" opacity="1" d="M 253.5 132 L 252.5 134 L 253.5 132 Z " /><path fill="rgb(187,177,130)" stroke="rgb(187,177,130)" stroke-width="1" opacity="1" d="M 233.5 143 L 232.5 145 L 233.5 143 Z " /><path fill="rgb(187,177,130)" stroke="rgb(187,177,130)" stroke-width="1" opacity="1" d="M 224.5 148 L 223.5 150 L 224.5 148 Z " /><path fill="rgb(187,177,130)" stroke="rgb(187,177,130)" stroke-width="1" opacity="1" d="M 213.5 154 L 212.5 156 L 213.5 154 Z " /><path fill="rgb(187,177,130)" stroke="rgb(187,177,130)" stroke-width="1" opacity="1" d="M 64.5 208 L 68 208.5 L 64.5 209 L 64.5 208 Z " /><path fill="rgb(187,177,130)" stroke="rgb(187,177,130)" stroke-width="1" opacity="1" d="M 424.5 208 L 427 208.5 L 424.5 209 L 424.5 208 Z " /><path fill="rgb(187,177,130)" stroke="rgb(187,177,130)" stroke-width="1" opacity="1" d="M 48.5 214 L 47.5 216 L 48.5 214 Z " /><path fill="rgb(187,177,130)" stroke="rgb(187,177,130)" stroke-width="1" opacity="1" d="M 446.5 217 L 449.5 221 L 446.5 217 Z " /><path fill="rgb(187,177,130)" stroke="rgb(187,177,130)" stroke-width="1" opacity="1" d="M 40.5 222 L 39.5 224 L 40.5 222 Z " /><path fill="rgb(187,177,130)" stroke="rgb(187,177,130)" stroke-width="1" opacity="1" d="M 33.5 238 L 34 251.5 L 33 251.5 L 33.5 238 Z " /><path fill="rgb(187,177,130)" stroke="rgb(187,177,130)" stroke-width="1" opacity="1" d="M 74.5 250 L 98 250.5 L 74.5 251 L 74.5 250 Z " /><path fill="rgb(187,177,130)" stroke="rgb(187,177,130)" stroke-width="1" opacity="1" d="M 105.5 250 L 139 250.5 L 105.5 251 L 105.5 250 Z " /><path fill="rgb(187,177,130)" stroke="rgb(187,177,130)" stroke-width="1" opacity="1" d="M 147.5 254 L 148.5 256 L 147.5 254 Z " /><path fill="rgb(187,177,130)" stroke="rgb(187,177,130)" stroke-width="1" opacity="1" d="M 152.5 268 L 153 300.5 L 152 300.5 L 152.5 268 Z " /><path fill="rgb(253,204,93)" stroke="rgb(253,204,93)" stroke-width="1" opacity="0.6392156862745098" d="M 352.5 23 L 355 23.5 L 352.5 24 L 352.5 23 Z " /><path fill="rgb(253,204,93)" stroke="rgb(253,204,93)" stroke-width="1" opacity="0.6392156862745098" d="M 366.5 23 L 369 23.5 L 366.5 24 L 366.5 23 Z " /><path fill="rgb(253,204,93)" stroke="rgb(253,204,93)" stroke-width="1" opacity="0.6392156862745098" d="M 373.5 25 Q 384.2 28.8 390 37.5 L 400 55.5 L 398 54.5 L 389 37.5 L 381.5 30 L 373.5 26 L 373.5 25 Z " /><path fill="rgb(253,204,93)" stroke="rgb(253,204,93)" stroke-width="1" opacity="0.6392156862745098" d="M 342.5 27 L 341.5 29 L 335.5 32 L 336.5 30 L 342.5 27 Z " /><path fill="rgb(253,204,93)" stroke="rgb(253,204,93)" stroke-width="1" opacity="0.6392156862745098" d="M 333.5 32 L 332.5 34 L 326.5 37 L 327.5 35 L 333.5 32 Z " /><path fill="rgb(253,204,93)" stroke="rgb(253,204,93)" stroke-width="1" opacity="0.6392156862745098" d="M 322.5 38 L 321.5 40 L 317.5 42 L 318.5 40 L 322.5 38 Z " /><path fill="rgb(253,204,93)" stroke="rgb(253,204,93)" stroke-width="1" opacity="0.6392156862745098" d="M 313.5 43 L 312.5 45 L 306.5 48 L 307.5 46 L 313.5 43 Z " /><path fill="rgb(253,204,93)" stroke="rgb(253,204,93)" stroke-width="1" opacity="0.6392156862745098" d="M 302.5 49 L 301.5 51 L 297.5 53 L 298.5 51 L 302.5 49 Z " /><path fill="rgb(253,204,93)" stroke="rgb(253,204,93)" stroke-width="1" opacity="0.6392156862745098" d="M 293.5 54 L 292.5 56 L 286.5 59 L 287.5 57 L 293.5 54 Z " /><path fill="rgb(253,204,93)" stroke="rgb(253,204,93)" stroke-width="1" opacity="0.6392156862745098" d="M 400.5 57 L 406 66.5 L 404 65.5 L 400.5 57 Z " /><path fill="rgb(253,204,93)" stroke="rgb(253,204,93)" stroke-width="1" opacity="0.6392156862745098" d="M 282.5 60 L 281.5 62 L 277.5 64 L 278.5 62 L 282.5 60 Z " /><path fill="rgb(253,204,93)" stroke="rgb(253,204,93)" stroke-width="1" opacity="0.6392156862745098" d="M 273.5 65 L 272.5 67 L 266.5 70 L 267.5 68 L 273.5 65 Z " /><path fill="rgb(253,204,93)" stroke="rgb(253,204,93)" stroke-width="1" opacity="0.6392156862745098" d="M 406.5 68 L 411 75.5 L 409 74.5 L 406.5 68 Z " /><path fill="rgb(253,204,93)" stroke="rgb(253,204,93)" stroke-width="1" opacity="0.6392156862745098" d="M 262.5 71 L 261.5 73 L 257.5 75 L 258.5 73 L 262.5 71 Z " /><path fill="rgb(253,204,93)" stroke="rgb(253,204,93)" stroke-width="1" opacity="0.6392156862745098" d="M 251.5 77 L 250.5 79 L 246.5 81 L 247.5 79 L 251.5 77 Z " /><path fill="rgb(253,204,93)" stroke="rgb(253,204,93)" stroke-width="1" opacity="0.6392156862745098" d="M 411.5 77 L 417 86.5 L 415 85.5 L 411.5 77 Z " /><path fill="rgb(253,204,93)" stroke="rgb(253,204,93)" stroke-width="1" opacity="0.6392156862745098" d="M 242.5 82 L 241.5 84 L 237.5 86 L 238.5 84 L 242.5 82 Z " /><path fill="rgb(253,204,93)" stroke="rgb(253,204,93)" stroke-width="1" opacity="0.6392156862745098" d="M 233.5 87 L 232.5 89 L 228.5 91 L 229.5 89 L 233.5 87 Z " /><path fill="rgb(253,204,93)" stroke="rgb(253,204,93)" stroke-width="1" opacity="0.6392156862745098" d="M 417.5 88 L 422 95.5 L 420 94.5 L 417.5 88 Z " /><path fill="rgb(253,204,93)" stroke="rgb(253,204,93)" stroke-width="1" opacity="0.6392156862745098" d="M 224.5 92 L 223.5 94 L 217.5 97 L 218.5 95 L 224.5 92 Z " /><path fill="rgb(253,204,93)" stroke="rgb(253,204,93)" stroke-width="1" opacity="0.6392156862745098" d="M 422.5 97 L 427 104.5 L 425 103.5 L 422.5 97 Z " /><path fill="rgb(253,204,93)" stroke="rgb(253,204,93)" stroke-width="1" opacity="0.6392156862745098" d="M 213.5 98 L 212.5 100 L 208.5 102 L 209.5 100 L 213.5 98 Z " /><path fill="rgb(253,204,93)" stroke="rgb(253,204,93)" stroke-width="1" opacity="0.6392156862745098" d="M 204.5 103 L 203.5 105 L 197.5 108 L 198.5 106 L 204.5 103 Z " /><path fill="rgb(253,204,93)" stroke="rgb(253,204,93)" stroke-width="1" opacity="0.6392156862745098" d="M 428.5 108 L 433 115.5 L 431 114.5 L 428.5 108 Z " /><path fill="rgb(253,204,93)" stroke="rgb(253,204,93)" stroke-width="1" opacity="0.6392156862745098" d="M 193.5 109 L 192.5 111 L 188.5 113 L 189.5 111 L 193.5 109 Z " /><path fill="rgb(253,204,93)" stroke="rgb(253,204,93)" stroke-width="1" opacity="0.6392156862745098" d="M 184.5 114 L 183.5 116 L 177.5 119 L 178.5 117 L 184.5 114 Z " /><path fill="rgb(253,204,93)" stroke="rgb(253,204,93)" stroke-width="1" opacity="0.6392156862745098" d="M 433.5 117 L 438 124.5 L 436 123.5 L 433.5 117 Z " /><path fill="rgb(253,204,93)" stroke="rgb(253,204,93)" stroke-width="1" opacity="0.6392156862745098" d="M 173.5 120 L 172.5 122 L 168.5 124 L 169.5 122 L 173.5 120 Z " /><path fill="rgb(253,204,93)" stroke="rgb(253,204,93)" stroke-width="1" opacity="0.6392156862745098" d="M 162.5 126 L 161.5 128 L 157.5 130 L 158.5 128 L 162.5 126 Z " /><path fill="rgb(253,204,93)" stroke="rgb(253,204,93)" stroke-width="1" opacity="0.6392156862745098" d="M 439.5 128 L 444 135.5 L 442 134.5 L 439.5 128 Z " /><path fill="rgb(253,204,93)" stroke="rgb(253,204,93)" stroke-width="1" opacity="0.6392156862745098" d="M 153.5 131 L 152.5 133 L 148.5 135 L 149.5 133 L 153.5 131 Z " /><path fill="rgb(253,204,93)" stroke="rgb(253,204,93)" stroke-width="1" opacity="0.6392156862745098" d="M 144.5 136 L 143.5 138 L 137.5 141 L 138.5 139 L 144.5 136 Z " /><path fill="rgb(253,204,93)" stroke="rgb(253,204,93)" stroke-width="1" opacity="0.6392156862745098" d="M 444.5 137 L 449 144.5 L 447 143.5 L 444.5 137 Z " /><path fill="rgb(253,204,93)" stroke="rgb(253,204,93)" stroke-width="1" opacity="0.6392156862745098" d="M 133.5 142 L 132.5 144 L 128.5 146 L 129.5 144 L 133.5 142 Z " /><path fill="rgb(253,204,93)" stroke="rgb(253,204,93)" stroke-width="1" opacity="0.6392156862745098" d="M 124.5 147 L 123.5 149 L 117.5 152 L 118.5 150 L 124.5 147 Z " /><path fill="rgb(253,204,93)" stroke="rgb(253,204,93)" stroke-width="1" opacity="0.6392156862745098" d="M 450.5 148 L 455 155.5 L 453 154.5 L 450.5 148 Z " /><path fill="rgb(253,204,93)" stroke="rgb(253,204,93)" stroke-width="1" opacity="0.6392156862745098" d="M 113.5 153 L 112.5 155 L 108.5 157 L 109.5 155 L 113.5 153 Z " /><path fill="rgb(253,204,93)" stroke="rgb(253,204,93)" stroke-width="1" opacity="0.6392156862745098" d="M 455.5 157 L 460 164.5 L 458 163.5 L 455.5 157 Z " /><path fill="rgb(253,204,93)" stroke="rgb(253,204,93)" stroke-width="1" opacity="0.6392156862745098" d="M 104.5 158 L 103.5 160 L 97.5 163 L 98.5 161 L 104.5 158 Z " /><path fill="rgb(253,204,93)" stroke="rgb(253,204,93)" stroke-width="1" opacity="0.6392156862745098" d="M 93.5 164 L 92.5 166 L 88.5 168 L 89.5 166 L 93.5 164 Z " /><path fill="rgb(253,204,93)" stroke="rgb(253,204,93)" stroke-width="1" opacity="0.6392156862745098" d="M 460.5 166 L 466 175.5 L 464 174.5 L 460.5 166 Z " /><path fill="rgb(253,204,93)" stroke="rgb(253,204,93)" stroke-width="1" opacity="0.6392156862745098" d="M 84.5 169 L 83.5 171 L 77.5 174 L 78.5 172 L 84.5 169 Z " /><path fill="rgb(253,204,93)" stroke="rgb(253,204,93)" stroke-width="1" opacity="0.6392156862745098" d="M 75.5 174 L 74.5 176 L 68.5 179 L 69.5 177 L 75.5 174 Z " /><path fill="rgb(253,204,93)" stroke="rgb(253,204,93)" stroke-width="1" opacity="0.6392156862745098" d="M 466.5 177 L 471 184.5 L 469 183.5 L 466.5 177 Z " /><path fill="rgb(253,204,93)" stroke="rgb(253,204,93)" stroke-width="1" opacity="0.6392156862745098" d="M 64.5 180 L 63.5 182 L 59.5 184 L 60.5 182 L 64.5 180 Z " /><path fill="rgb(253,204,93)" stroke="rgb(253,204,93)" stroke-width="1" opacity="0.6392156862745098" d="M 55.5 185 L 54.5 187 L 48.5 190 L 49.5 188 L 55.5 185 Z " /><path fill="rgb(253,204,93)" stroke="rgb(253,204,93)" stroke-width="1" opacity="0.6392156862745098" d="M 471.5 186 L 477 195.5 L 475 194.5 L 471.5 186 Z " /><path fill="rgb(253,204,93)" stroke="rgb(253,204,93)" stroke-width="1" opacity="0.6392156862745098" d="M 44.5 191 L 43.5 193 L 39.5 195 L 40.5 193 L 44.5 191 Z " /><path fill="rgb(253,204,93)" stroke="rgb(253,204,93)" stroke-width="1" opacity="0.6392156862745098" d="M 35.5 196 L 34.5 198 Q 26.8 200.8 22.5 207 L 28.5 200 L 35.5 196 Z " /><path fill="rgb(253,204,93)" stroke="rgb(253,204,93)" stroke-width="1" opacity="0.6392156862745098" d="M 477.5 197 L 482 204.5 L 480 203.5 L 477.5 197 Z " /><path fill="rgb(253,204,93)" stroke="rgb(253,204,93)" stroke-width="1" opacity="0.6392156862745098" d="M 482.5 206 L 493 224.5 L 491 223.5 L 482.5 206 Z " /><path fill="rgb(253,204,93)" stroke="rgb(253,204,93)" stroke-width="1" opacity="0.6392156862745098" d="M 21.5 208 L 20.5 210 L 21.5 208 Z " /><path fill="rgb(253,204,93)" stroke="rgb(253,204,93)" stroke-width="1" opacity="0.6392156862745098" d="M 19.5 211 L 19 212.5 L 18.5 214 L 18 212.5 L 19.5 211 Z " /><path fill="rgb(253,204,93)" stroke="rgb(253,204,93)" stroke-width="1" opacity="0.6392156862745098" d="M 15.5 221 L 16 223.5 L 15 223.5 L 15.5 221 Z " /><path fill="rgb(253,204,93)" stroke="rgb(253,204,93)" stroke-width="1" opacity="0.6392156862745098" d="M 493.5 226 L 496 232.5 L 495 232.5 L 493.5 226 Z " /><path fill="rgb(253,204,93)" stroke="rgb(253,204,93)" stroke-width="1" opacity="0.6392156862745098" d="M 15.5 234 L 16 236.5 L 15 236.5 L 15.5 234 Z " /><path fill="rgb(253,204,93)" stroke="rgb(253,204,93)" stroke-width="1" opacity="0.6392156862745098" d="M 496.5 234 L 497 237.5 L 496 237.5 L 496.5 234 Z " /><path fill="rgb(253,204,93)" stroke="rgb(253,204,93)" stroke-width="1" opacity="0.6392156862745098" d="M 496.5 246 L 497 249.5 L 496 249.5 L 496.5 246 Z " /><path fill="rgb(253,204,93)" stroke="rgb(253,204,93)" stroke-width="1" opacity="0.6392156862745098" d="M 21.5 250 L 25 255.5 L 23 254.5 L 21.5 250 Z " /><path fill="rgb(253,204,93)" stroke="rgb(253,204,93)" stroke-width="1" opacity="0.6392156862745098" d="M 494.5 255 L 495 256.5 Q 491 265.5 483.5 271 L 478.5 274 L 479.5 272 L 490 263.5 L 494.5 255 Z " /><path fill="rgb(253,204,93)" stroke="rgb(253,204,93)" stroke-width="1" opacity="0.6392156862745098" d="M 28.5 263 L 29.5 265 L 28.5 263 Z " /><path fill="rgb(253,204,93)" stroke="rgb(253,204,93)" stroke-width="1" opacity="0.6392156862745098" d="M 476.5 274 L 475.5 276 L 469.5 279 L 470.5 277 L 476.5 274 Z " /><path fill="rgb(253,204,93)" stroke="rgb(253,204,93)" stroke-width="1" opacity="0.6392156862745098" d="M 467.5 279 L 466.5 281 L 460.5 284 L 461.5 282 L 467.5 279 Z " /><path fill="rgb(0,0,0)" stroke="rgb(0,0,0)" stroke-width="1" opacity="0" d="M 0 0 L 512 0 L 512 512 L 0 512 L 0 0 Z M 353 23 L 337 30 L 29 200 Q 18 207 15 222 Q 14 233 16 241 L 33 272 L 33 461 L 39 475 Q 46 485 61 489 L 431 489 Q 441 486 448 480 Q 455 473 458 462 L 458 286 L 484 271 Q 494 264 497 250 L 497 235 L 490 219 L 390 38 Q 384 29 375 25 Q 367 21 353 23 Z " /><path fill="rgb(253,188,32)" stroke="rgb(253,188,32)" stroke-width="1" opacity="0.984313725490196" d="M 355.5 23 Q 368 21.5 374 26.5 Q 328.3 55.3 286.5 88 L 253.5 115 L 209.5 157 L 204.5 160 L 116.5 208 L 64.5 208 Q 47.1 211.1 39 223.5 L 33 238.5 L 32.5 270 L 17 241.5 L 15 233.5 L 15 224.5 Q 17.9 208.9 28.5 201 L 343.5 27 L 355.5 23 Z M 179 146 Q 138 164 106 189 L 104 192 L 140 174 L 179 148 L 179 146 Z " /><path fill="rgb(253,188,32)" stroke="rgb(253,188,32)" stroke-width="1" opacity="0.984313725490196" d="M 489.5 220 L 496 233.5 L 497 245.5 Q 494.8 246.8 496 251.5 L 492 260.5 L 483.5 270 L 458 284 L 458 268.5 L 459.5 268 L 475.5 259 L 483 251.5 L 489 240.5 Q 491.3 233.8 490 223.5 L 489.5 220 Z " /><path fill="rgb(253,188,32)" stroke="rgb(253,188,32)" stroke-width="1" opacity="0.984313725490196" d="M 98 251 L 104.5 251 L 105 251.5 L 105 278 L 151.5 278 L 152 278.5 L 152 285 L 128.5 285 L 127 286.5 L 127 313 L 141.5 313 L 150 306.5 L 151.5 303 L 152 306.5 Q 150.5 313 145.5 316 L 140.5 318 L 72.5 318 L 64 312.5 L 61 302.5 L 62 302.5 Q 62.7 308.9 67.5 311 Q 72.4 314.3 81 313 L 81 285 L 61 285 L 61 278 L 98 278 L 98 251 Z M 90 285 L 88 287 L 88 313 L 120 313 L 120 285 L 90 285 Z " /><path fill="rgb(71,87,111)" stroke="rgb(71,87,111)" stroke-width="1" opacity="1" d="M 379.5 64 Q 387 64 390 68.5 L 406 96.5 L 407 106.5 L 401.5 113 L 229.5 208 L 118.5 208 L 118.5 207 L 379.5 64 Z " /><path fill="rgb(254,211,116)" stroke="rgb(254,211,116)" stroke-width="1" opacity="0.996078431372549" d="M 374.5 26 Q 383.5 30 389 37.5 L 482 205.5 L 489 219.5 Q 491.3 226.2 490 236.5 Q 486.6 251.6 475.5 259 L 458 268 L 458 237.5 Q 455 224.5 446.5 217 L 437.5 211 L 426.5 208 L 230 207.5 L 395.5 117 L 406 109.5 L 408 101.5 L 392 70.5 L 386.5 65 L 377.5 64 L 211.5 156 L 233.5 133 Q 298.3 73.8 374.5 26 Z M 416 126 L 416 131 L 428 155 L 451 190 L 453 191 Q 438 154 416 126 Z " /><path fill="rgb(254,211,116)" stroke="rgb(254,211,116)" stroke-width="1" opacity="0.996078431372549" d="M 178.5 146 L 179 148 L 176 147.5 L 178.5 146 Z " /><path fill="rgb(254,211,116)" stroke="rgb(254,211,116)" stroke-width="1" opacity="0.996078431372549" d="M 174.5 148 Q 177.5 149.5 174.5 151 L 174.5 148 Z " /><path fill="rgb(254,211,116)" stroke="rgb(254,211,116)" stroke-width="1" opacity="0.996078431372549" d="M 172.5 151 L 171.5 153 L 172.5 151 Z " /><path fill="rgb(254,211,116)" stroke="rgb(254,211,116)" stroke-width="1" opacity="0.996078431372549" d="M 168.5 154 L 167.5 156 L 168.5 154 Z " /><path fill="rgb(254,211,116)" stroke="rgb(254,211,116)" stroke-width="1" opacity="0.996078431372549" d="M 165.5 156 L 164.5 158 L 165.5 156 Z " /><path fill="rgb(254,211,116)" stroke="rgb(254,211,116)" stroke-width="1" opacity="0.996078431372549" d="M 148.5 161 L 147.5 163 L 148.5 161 Z " /><path fill="rgb(254,211,116)" stroke="rgb(254,211,116)" stroke-width="1" opacity="0.996078431372549" d="M 153.5 164 L 152.5 166 L 153.5 164 Z " /><path fill="rgb(254,211,116)" stroke="rgb(254,211,116)" stroke-width="1" opacity="0.996078431372549" d="M 141.5 165 L 140.5 167 L 141.5 165 Z " /><path fill="rgb(254,211,116)" stroke="rgb(254,211,116)" stroke-width="1" opacity="0.996078431372549" d="M 150.5 166 L 149.5 168 L 150.5 166 Z " /><path fill="rgb(254,211,116)" stroke="rgb(254,211,116)" stroke-width="1" opacity="0.996078431372549" d="M 136.5 168 L 135.5 170 L 136.5 168 Z " /><path fill="rgb(254,211,116)" stroke="rgb(254,211,116)" stroke-width="1" opacity="0.996078431372549" d="M 145.5 169 L 144.5 171 L 145.5 169 Z " /><path fill="rgb(254,211,116)" stroke="rgb(254,211,116)" stroke-width="1" opacity="0.996078431372549" d="M 140.5 172 L 139.5 174 L 140.5 172 Z " /><path fill="rgb(254,211,116)" stroke="rgb(254,211,116)" stroke-width="1" opacity="0.996078431372549" d="M 128.5 173 L 127.5 175 L 128.5 173 Z " /><path fill="rgb(254,211,116)" stroke="rgb(254,211,116)" stroke-width="1" opacity="0.996078431372549" d="M 125.5 175 L 124.5 177 L 125.5 175 Z " /><path fill="rgb(254,211,116)" stroke="rgb(254,211,116)" stroke-width="1" opacity="0.996078431372549" d="M 133.5 176 L 132.5 178 L 133.5 176 Z " /><path fill="rgb(254,211,116)" stroke="rgb(254,211,116)" stroke-width="1" opacity="0.996078431372549" d="M 122.5 177 L 121.5 179 L 122.5 177 Z " /><path fill="rgb(254,211,116)" stroke="rgb(254,211,116)" stroke-width="1" opacity="0.996078431372549" d="M 119.5 179 L 118.5 181 L 119.5 179 Z " /><path fill="rgb(254,211,116)" stroke="rgb(254,211,116)" stroke-width="1" opacity="0.996078431372549" d="M 116.5 181 L 115.5 183 L 116.5 181 Z " /><path fill="rgb(254,211,116)" stroke="rgb(254,211,116)" stroke-width="1" opacity="0.996078431372549" d="M 109.5 186 L 108.5 188 L 109.5 186 Z " /><path fill="rgb(254,211,116)" stroke="rgb(254,211,116)" stroke-width="1" opacity="0.996078431372549" d="M 105.5 189 L 106.5 191 L 105 190.5 Q 105.8 192.8 103.5 192 L 102 192.5 L 105.5 189 Z " /><path fill="rgb(254,211,116)" stroke="rgb(254,211,116)" stroke-width="1" opacity="0.996078431372549" d="M 98.5 250 Q 104 248.5 105.5 251 L 141.5 251 L 150 257.5 L 152 262.5 L 152 278 L 105 278 L 105 251.5 L 104.5 251 L 98 251 L 98 278 L 61 278 L 62 259.5 L 67.5 253 L 71.5 251 L 97.5 251 L 98.5 250 Z " /><path fill="rgb(254,211,116)" stroke="rgb(254,211,116)" stroke-width="1" opacity="0.996078431372549" d="M 61 285 L 81 285 L 81 313 Q 67.7 314.5 63 306.5 L 61 301.5 L 61 285 Z " /><path fill="rgb(254,211,116)" stroke="rgb(254,211,116)" stroke-width="1" opacity="0.996078431372549" d="M 89.5 285 L 120 285 L 120 313 L 88 313 L 88 286.5 L 89.5 285 Z " /><path fill="rgb(254,211,116)" stroke="rgb(254,211,116)" stroke-width="1" opacity="0.996078431372549" d="M 128.5 285 L 152 285 L 152 302.5 L 145.5 311 L 141.5 313 L 127 313 L 127 286.5 L 128.5 285 Z " /><path fill="rgb(111,171,229)" stroke="rgb(111,171,229)" stroke-width="1" opacity="0.9490196078431372" d="M 68.5 208 L 116 208.5 L 68.5 209 L 68.5 208 Z " /><path fill="rgb(111,171,229)" stroke="rgb(111,171,229)" stroke-width="1" opacity="0.9490196078431372" d="M 228.5 208 L 424 208.5 L 228.5 209 L 228.5 208 Z " /><path fill="rgb(111,171,229)" stroke="rgb(111,171,229)" stroke-width="1" opacity="0.9490196078431372" d="M 450.5 222 L 451.5 224 L 450.5 222 Z " /><path fill="rgb(111,171,229)" stroke="rgb(111,171,229)" stroke-width="1" opacity="0.9490196078431372" d="M 457.5 238 L 458 241.5 L 457 241.5 L 457.5 238 Z " /><path fill="rgb(111,171,229)" stroke="rgb(111,171,229)" stroke-width="1" opacity="0.9490196078431372" d="M 33.5 252 L 34 271.5 L 33 271.5 L 33.5 252 Z " /><path fill="rgb(111,171,229)" stroke="rgb(111,171,229)" stroke-width="1" opacity="0.9490196078431372" d="M 145.5 252 L 146.5 254 L 145.5 252 Z " /><path fill="rgb(111,171,229)" stroke="rgb(111,171,229)" stroke-width="1" opacity="0.9490196078431372" d="M 66.5 253 L 63.5 257 L 66.5 253 Z " /><path fill="rgb(111,171,229)" stroke="rgb(111,171,229)" stroke-width="1" opacity="0.9490196078431372" d="M 152.5 263 L 153 267.5 L 152 267.5 L 152.5 263 Z " /><path fill="rgb(111,171,229)" stroke="rgb(111,171,229)" stroke-width="1" opacity="0.9490196078431372" d="M 60.5 270 L 61 298.5 L 60 298.5 L 60.5 270 Z " /><path fill="rgb(111,171,229)" stroke="rgb(111,171,229)" stroke-width="1" opacity="0.9490196078431372" d="M 152.5 301 L 153 305.5 L 152 305.5 L 152.5 301 Z " /><path fill="rgb(111,171,229)" stroke="rgb(111,171,229)" stroke-width="1" opacity="0.9490196078431372" d="M 149.5 312 L 146.5 316 L 149.5 312 Z " /><path fill="rgb(111,171,229)" stroke="rgb(111,171,229)" stroke-width="1" opacity="0.9490196078431372" d="M 64.5 313 L 65.5 315 L 64.5 313 Z " /><path fill="rgb(111,171,229)" stroke="rgb(111,171,229)" stroke-width="1" opacity="0.9490196078431372" d="M 74.5 318 L 139 318.5 L 74.5 319 L 74.5 318 Z " /><path fill="rgb(87,179,253)" stroke="rgb(87,179,253)" stroke-width="1" opacity="0.996078431372549" d="M 40 223 L 52.5 223 L 53.5 224 L 64.5 224 L 65.5 225 L 76.5 225 L 86.5 227 L 104.5 228 L 105.5 229 L 127.5 231 L 128.5 232 L 134.5 232 L 170.5 239 L 175.5 239 L 231.5 252 L 278.5 267 Q 319.5 282 354.5 303 Q 390.6 324.9 418 355.5 Q 433.7 373.3 445 395.5 L 455 421.5 L 458 436.5 L 458 444.5 Q 455.4 458.4 446.5 466 Q 439.4 472.9 427.5 475 L 63.5 475 Q 46.7 471.8 39 459.5 L 35 451.5 L 33 443.5 L 33 272.5 L 34 271.5 L 34 237.5 L 40 223 Z M 73 250 L 67 253 L 61 261 L 61 270 L 60 271 L 60 299 L 61 300 L 61 309 L 64 314 Q 68 318 75 319 L 139 319 L 147 316 Q 151 312 153 306 L 153 264 L 150 257 Q 147 252 141 250 L 73 250 Z M 73 398 L 68 400 Q 62 402 61 409 Q 60 418 62 424 L 72 431 L 113 431 L 118 429 Q 123 425 124 418 Q 125 410 122 406 Q 119 400 112 398 L 73 398 Z M 175 398 L 170 400 Q 165 403 163 410 Q 162 419 165 425 Q 168 429 175 431 L 215 431 L 220 429 Q 224 426 226 420 Q 228 408 223 404 L 214 398 L 175 398 Z M 277 398 L 271 401 Q 266 404 265 410 L 265 418 L 267 425 Q 270 429 277 431 L 318 431 L 322 429 L 328 421 Q 330 409 326 405 Q 322 400 316 398 L 277 398 Z M 379 398 L 373 401 L 370 404 L 367 412 L 368 422 L 370 426 L 379 431 L 420 431 L 426 428 L 430 421 Q 432 411 429 406 Q 426 399 418 398 L 379 398 Z M 322 455 L 321 456 Q 311 455 305 458 L 314 459 L 327 459 L 328 460 L 369 460 L 370 459 L 384 459 L 392 458 Q 386 455 377 456 L 376 455 L 322 455 Z " /><path fill="rgb(87,179,253)" stroke="rgb(87,179,253)" stroke-width="1" opacity="0.996078431372549" d="M 353.5 261 L 424 261.5 L 353.5 262 L 353.5 261 Z " /><path fill="rgb(87,179,253)" stroke="rgb(87,179,253)" stroke-width="1" opacity="0.996078431372549" d="M 349.5 262 L 347.5 265 L 349.5 262 Z " /><path fill="rgb(87,179,253)" stroke="rgb(87,179,253)" stroke-width="1" opacity="0.996078431372549" d="M 382.5 289 L 424 289.5 L 382.5 290 L 382.5 289 Z " /><path fill="rgb(87,179,253)" stroke="rgb(87,179,253)" stroke-width="1" opacity="0.996078431372549" d="M 378.5 291 L 377.5 293 L 378.5 291 Z " /><path fill="rgb(87,179,253)" stroke="rgb(87,179,253)" stroke-width="1" opacity="0.996078431372549" d="M 376.5 295 L 377 297.5 L 376 297.5 L 376.5 295 Z " /><path fill="rgb(80,148,254)" stroke="rgb(80,148,254)" stroke-width="1" opacity="0.996078431372549" d="M 116.5 208 L 429.5 209 Q 442.6 212.4 450 221.5 L 455 229.5 L 458 242.5 L 458 435.5 L 457 435.5 L 456 425.5 L 451 409.5 L 439 384.5 Q 421.1 355 395.5 333 Q 370.7 311.3 340.5 295 L 301.5 276 L 245.5 256 L 203.5 245 L 147.5 234 L 141.5 234 L 112.5 229 L 105.5 229 L 104.5 228 L 96.5 228 L 95.5 227 L 41 222.5 L 45.5 217 L 61.5 209 L 115.5 209 L 116.5 208 Z M 354 261 L 350 262 Q 345 264 346 271 L 351 275 L 427 275 L 431 269 L 430 266 L 424 261 L 354 261 Z M 383 289 L 379 291 L 376 296 L 377 300 L 382 303 L 427 303 L 431 297 L 430 294 L 424 289 L 383 289 Z " /><path fill="rgb(80,148,254)" stroke="rgb(80,148,254)" stroke-width="1" opacity="0.996078431372549" d="M 33.5 444 Q 36.2 461.3 48.5 469 Q 54.5 473.5 63.5 475 L 427.5 475 Q 440.6 472.6 448 464.5 Q 455.6 457.6 457.5 445 L 458 461.5 Q 454.9 472.9 447.5 480 Q 441 486.5 430.5 489 L 60.5 489 Q 46.4 485.1 39 474.5 Q 30.2 464.3 33.5 444 Z " /><path fill="rgb(224,232,243)" stroke="rgb(224,232,243)" stroke-width="1" opacity="1" d="M 427.5 263 L 429.5 266 L 427.5 263 Z " /><path fill="rgb(224,232,243)" stroke="rgb(224,232,243)" stroke-width="1" opacity="1" d="M 347.5 271 L 349.5 274 L 347.5 271 Z " /><path fill="rgb(224,232,243)" stroke="rgb(224,232,243)" stroke-width="1" opacity="1" d="M 428.5 272 L 427.5 274 L 428.5 272 Z " /><path fill="rgb(224,232,243)" stroke="rgb(224,232,243)" stroke-width="1" opacity="1" d="M 351.5 274 L 426 274.5 L 351.5 275 L 351.5 274 Z " /><path fill="rgb(224,232,243)" stroke="rgb(224,232,243)" stroke-width="1" opacity="1" d="M 427.5 291 L 429.5 294 L 427.5 291 Z " /><path fill="rgb(224,232,243)" stroke="rgb(224,232,243)" stroke-width="1" opacity="1" d="M 428.5 300 L 427.5 302 L 428.5 300 Z " /><path fill="rgb(224,232,243)" stroke="rgb(224,232,243)" stroke-width="1" opacity="1" d="M 382.5 302 L 426 302.5 L 382.5 303 L 382.5 302 Z " /><path fill="rgb(224,232,243)" stroke="rgb(224,232,243)" stroke-width="1" opacity="1" d="M 72.5 398 L 112 398.5 L 72.5 399 L 72.5 398 Z " /><path fill="rgb(224,232,243)" stroke="rgb(224,232,243)" stroke-width="1" opacity="1" d="M 174.5 398 L 214 398.5 L 174.5 399 L 174.5 398 Z " /><path fill="rgb(224,232,243)" stroke="rgb(224,232,243)" stroke-width="1" opacity="1" d="M 276.5 398 L 316 398.5 L 276.5 399 L 276.5 398 Z " /><path fill="rgb(224,232,243)" stroke="rgb(224,232,243)" stroke-width="1" opacity="1" d="M 378.5 398 L 418 398.5 L 378.5 399 L 378.5 398 Z " /><path fill="rgb(224,232,243)" stroke="rgb(224,232,243)" stroke-width="1" opacity="1" d="M 375.5 399 L 377 399.5 L 374.5 401 L 375.5 399 Z " /><path fill="rgb(224,232,243)" stroke="rgb(224,232,243)" stroke-width="1" opacity="1" d="M 169.5 400 L 168.5 402 L 169.5 400 Z " /><path fill="rgb(224,232,243)" stroke="rgb(224,232,243)" stroke-width="1" opacity="1" d="M 423.5 400 L 424.5 402 L 423.5 400 Z " /><path fill="rgb(224,232,243)" stroke="rgb(224,232,243)" stroke-width="1" opacity="1" d="M 220.5 401 L 222.5 404 L 220.5 401 Z " /><path fill="rgb(224,232,243)" stroke="rgb(224,232,243)" stroke-width="1" opacity="1" d="M 270.5 401 L 267.5 405 L 270.5 401 Z " /><path fill="rgb(224,232,243)" stroke="rgb(224,232,243)" stroke-width="1" opacity="1" d="M 322.5 401 L 325.5 405 L 322.5 401 Z " /><path fill="rgb(224,232,243)" stroke="rgb(224,232,243)" stroke-width="1" opacity="1" d="M 372.5 401 L 370.5 404 L 372.5 401 Z " /><path fill="rgb(224,232,243)" stroke="rgb(224,232,243)" stroke-width="1" opacity="1" d="M 166.5 403 L 165.5 405 L 166.5 403 Z " /><path fill="rgb(224,232,243)" stroke="rgb(224,232,243)" stroke-width="1" opacity="1" d="M 63.5 404 L 62.5 406 L 63.5 404 Z " /><path fill="rgb(224,232,243)" stroke="rgb(224,232,243)" stroke-width="1" opacity="1" d="M 427.5 404 L 428.5 406 L 427.5 404 Z " /><path fill="rgb(224,232,243)" stroke="rgb(224,232,243)" stroke-width="1" opacity="1" d="M 163.5 409 L 164 411.5 L 163 411.5 L 163.5 409 Z " /><path fill="rgb(224,232,243)" stroke="rgb(224,232,243)" stroke-width="1" opacity="1" d="M 225.5 409 L 226 411.5 L 225 411.5 L 225.5 409 Z " /><path fill="rgb(224,232,243)" stroke="rgb(224,232,243)" stroke-width="1" opacity="1" d="M 265.5 409 Q 264.6 420.9 272.5 424 L 275.5 425 L 318.5 425 L 326 419.5 L 327.5 415 L 328 420.5 L 321.5 429 L 317.5 431 L 276.5 431 Q 270 429.5 267 424.5 L 265 417.5 L 265.5 409 Z " /><path fill="rgb(224,232,243)" stroke="rgb(224,232,243)" stroke-width="1" opacity="1" d="M 123.5 410 L 124 417.5 Q 122.8 425.3 117.5 429 L 112.5 431 L 71.5 431 L 62 423.5 L 61 416.5 L 62 416.5 L 66.5 423 L 70.5 425 L 114.5 425 L 120 422 L 123 416.5 L 123.5 410 Z " /><path fill="rgb(224,232,243)" stroke="rgb(224,232,243)" stroke-width="1" opacity="1" d="M 367.5 411 L 368 414.5 L 367 414.5 L 367.5 411 Z " /><path fill="rgb(224,232,243)" stroke="rgb(224,232,243)" stroke-width="1" opacity="1" d="M 225.5 413 L 226 419.5 Q 224.5 426 219.5 429 L 214.5 431 L 174.5 431 Q 168 429.5 165 424.5 Q 162.3 421.2 163 414.5 L 164 414.5 L 164 417.5 L 167.5 422 L 172.5 425 L 216.5 425 L 223 420.5 Q 225.8 418.3 225.5 413 Z " /><path fill="rgb(224,232,243)" stroke="rgb(224,232,243)" stroke-width="1" opacity="1" d="M 429.5 416 L 430 420.5 L 425.5 428 L 419.5 431 L 378.5 431 L 370 425.5 Q 367.3 423.2 368 417.5 L 369 417.5 L 373.5 423 L 377.5 425 L 421.5 425 L 428 419.5 L 429.5 416 Z " /><path fill="rgb(224,232,243)" stroke="rgb(224,232,243)" stroke-width="1" opacity="1" d="M 321.5 455 L 328 455.5 L 321.5 456 L 321.5 455 Z " /><path fill="rgb(224,232,243)" stroke="rgb(224,232,243)" stroke-width="1" opacity="1" d="M 369.5 455 L 376 455.5 L 369.5 456 L 369.5 455 Z " /><path fill="rgb(224,232,243)" stroke="rgb(224,232,243)" stroke-width="1" opacity="1" d="M 309.5 456 L 314 456.5 L 309.5 457 L 309.5 456 Z " /><path fill="rgb(224,232,243)" stroke="rgb(224,232,243)" stroke-width="1" opacity="1" d="M 383.5 456 L 387 456.5 L 383.5 457 L 383.5 456 Z " /><path fill="rgb(224,232,243)" stroke="rgb(224,232,243)" stroke-width="1" opacity="1" d="M 305.5 457 L 308 457.5 L 305.5 458 L 305.5 457 Z " /><path fill="rgb(224,232,243)" stroke="rgb(224,232,243)" stroke-width="1" opacity="1" d="M 389.5 457 L 392 457.5 L 389.5 458 L 389.5 457 Z " /><path fill="rgb(224,232,243)" stroke="rgb(224,232,243)" stroke-width="1" opacity="1" d="M 313.5 458 L 319 458.5 L 313.5 459 L 313.5 458 Z " /><path fill="rgb(224,232,243)" stroke="rgb(224,232,243)" stroke-width="1" opacity="1" d="M 378.5 458 L 384 458.5 L 378.5 459 L 378.5 458 Z " /><path fill="rgb(224,232,243)" stroke="rgb(224,232,243)" stroke-width="1" opacity="1" d="M 327.5 459 L 337 459.5 L 327.5 460 L 327.5 459 Z " /><path fill="rgb(224,232,243)" stroke="rgb(224,232,243)" stroke-width="1" opacity="1" d="M 360.5 459 L 369 459.5 L 360.5 460 L 360.5 459 Z " /><path fill="rgb(254,254,254)" stroke="rgb(254,254,254)" stroke-width="1" opacity="1" d="M 414.5 125 L 416.5 128 Q 414.3 128.8 415 126.5 L 414.5 125 Z " /><path fill="rgb(254,254,254)" stroke="rgb(254,254,254)" stroke-width="1" opacity="1" d="M 416 129 L 420 131.5 L 416 130.5 L 416 129 Z " /><path fill="rgb(254,254,254)" stroke="rgb(254,254,254)" stroke-width="1" opacity="1" d="M 420.5 133 L 421.5 135 L 420.5 133 Z " /><path fill="rgb(254,254,254)" stroke="rgb(254,254,254)" stroke-width="1" opacity="1" d="M 422.5 136 L 423.5 138 L 422.5 136 Z " /><path fill="rgb(254,254,254)" stroke="rgb(254,254,254)" stroke-width="1" opacity="1" d="M 424.5 139 L 425.5 141 L 424.5 139 Z " /><path fill="rgb(254,254,254)" stroke="rgb(254,254,254)" stroke-width="1" opacity="1" d="M 426.5 142 L 427.5 144 L 426.5 142 Z " /><path fill="rgb(254,254,254)" stroke="rgb(254,254,254)" stroke-width="1" opacity="1" d="M 428.5 145 L 429.5 147 L 428.5 145 Z " /><path fill="rgb(254,254,254)" stroke="rgb(254,254,254)" stroke-width="1" opacity="1" d="M 175.5 148 L 177 148.5 L 173.5 151 L 173 149 L 175.5 148 Z " /><path fill="rgb(254,254,254)" stroke="rgb(254,254,254)" stroke-width="1" opacity="1" d="M 430.5 148 L 431.5 150 L 430.5 148 Z " /><path fill="rgb(254,254,254)" stroke="rgb(254,254,254)" stroke-width="1" opacity="1" d="M 426.5 150 L 429 153.5 L 427 152.5 L 426.5 150 Z " /><path fill="rgb(254,254,254)" stroke="rgb(254,254,254)" stroke-width="1" opacity="1" d="M 169.5 151 Q 172.5 152.5 169.5 154 L 169.5 151 Z " /><path fill="rgb(254,254,254)" stroke="rgb(254,254,254)" stroke-width="1" opacity="1" d="M 433.5 153 L 434.5 155 L 433.5 153 Z " /><path fill="rgb(254,254,254)" stroke="rgb(254,254,254)" stroke-width="1" opacity="1" d="M 167.5 154 L 166.5 156 L 167.5 154 Z " /><path fill="rgb(254,254,254)" stroke="rgb(254,254,254)" stroke-width="1" opacity="1" d="M 163.5 157 L 162.5 159 L 163.5 157 Z " /><path fill="rgb(254,254,254)" stroke="rgb(254,254,254)" stroke-width="1" opacity="1" d="M 436.5 158 L 439 161.5 L 437 160.5 L 436.5 158 Z " /><path fill="rgb(254,254,254)" stroke="rgb(254,254,254)" stroke-width="1" opacity="1" d="M 160.5 159 L 159.5 161 L 160.5 159 Z " /><path fill="rgb(254,254,254)" stroke="rgb(254,254,254)" stroke-width="1" opacity="1" d="M 431.5 159 L 432.5 161 L 431.5 159 Z " /><path fill="rgb(254,254,254)" stroke="rgb(254,254,254)" stroke-width="1" opacity="1" d="M 149.5 161 L 148.5 163 L 149.5 161 Z " /><path fill="rgb(254,254,254)" stroke="rgb(254,254,254)" stroke-width="1" opacity="1" d="M 157.5 161 L 156.5 163 L 157.5 161 Z " /><path fill="rgb(254,254,254)" stroke="rgb(254,254,254)" stroke-width="1" opacity="1" d="M 434.5 164 L 435.5 166 L 434.5 164 Z " /><path fill="rgb(254,254,254)" stroke="rgb(254,254,254)" stroke-width="1" opacity="1" d="M 142.5 165 L 141.5 167 L 142.5 165 Z " /><path fill="rgb(254,254,254)" stroke="rgb(254,254,254)" stroke-width="1" opacity="1" d="M 149.5 166 L 148.5 168 L 149.5 166 Z " /><path fill="rgb(254,254,254)" stroke="rgb(254,254,254)" stroke-width="1" opacity="1" d="M 436.5 167 L 441 173.5 L 439 172.5 L 436.5 167 Z " /><path fill="rgb(254,254,254)" stroke="rgb(254,254,254)" stroke-width="1" opacity="1" d="M 137.5 168 L 136.5 170 L 137.5 168 Z " /><path fill="rgb(254,254,254)" stroke="rgb(254,254,254)" stroke-width="1" opacity="1" d="M 442.5 169 L 448 179.5 L 447 179.5 L 442.5 169 Z " /><path fill="rgb(254,254,254)" stroke="rgb(254,254,254)" stroke-width="1" opacity="1" d="M 132.5 171 L 131.5 173 L 132.5 171 Z " /><path fill="rgb(254,254,254)" stroke="rgb(254,254,254)" stroke-width="1" opacity="1" d="M 441.5 175 L 446 180.5 L 443 178.5 L 441.5 175 Z " /><path fill="rgb(254,254,254)" stroke="rgb(254,254,254)" stroke-width="1" opacity="1" d="M 446.5 182 L 447.5 184 L 446.5 182 Z " /><path fill="rgb(254,254,254)" stroke="rgb(254,254,254)" stroke-width="1" opacity="1" d="M 114.5 183 L 113.5 185 L 114.5 183 Z " /><path fill="rgb(254,254,254)" stroke="rgb(254,254,254)" stroke-width="1" opacity="1" d="M 111.5 185 L 111.5 188 Q 108.5 186.5 111.5 185 Z " /><path fill="rgb(254,254,254)" stroke="rgb(254,254,254)" stroke-width="1" opacity="1" d="M 448.5 185 L 451 185.5 L 450.5 187 Q 452.8 186.3 452 188.5 L 453 190.5 L 451 189.5 L 448.5 185 Z " /><path fill="rgb(254,254,254)" stroke="rgb(254,254,254)" stroke-width="1" opacity="1" d="M 107.5 188 L 108 190 L 105.5 191 L 107.5 188 Z " /><path fill="rgb(254,254,254)" stroke="rgb(254,254,254)" stroke-width="1" opacity="1" d="M 349.5 263 L 348.5 265 L 349.5 263 Z " /><path fill="rgb(254,254,254)" stroke="rgb(254,254,254)" stroke-width="1" opacity="1" d="M 379.5 291 L 378.5 293 L 379.5 291 Z " /><path fill="rgb(254,254,254)" stroke="rgb(254,254,254)" stroke-width="1" opacity="1" d="M 66.5 401 L 64.5 404 L 66.5 401 Z " /><path fill="rgb(254,254,254)" stroke="rgb(254,254,254)" stroke-width="1" opacity="1" d="M 117.5 401 L 120.5 405 L 117.5 401 Z " /><path fill="rgb(254,254,254)" stroke="rgb(254,254,254)" stroke-width="1" opacity="1" d="M 425.5 402 L 426.5 404 L 425.5 402 Z " /><path fill="rgb(254,254,254)" stroke="rgb(254,254,254)" stroke-width="1" opacity="1" d="M 327.5 410 L 328 414.5 L 327 414.5 L 327.5 410 Z " /><path fill="rgb(254,254,254)" stroke="rgb(254,254,254)" stroke-width="1" opacity="1" d="M 61.5 413 L 62 415.5 L 61 415.5 L 61.5 413 Z " /><path fill="rgb(254,254,254)" stroke="rgb(254,254,254)" stroke-width="1" opacity="1" d="M 368.5 415 L 374 422.5 L 369 418.5 L 368.5 415 Z " /><path fill="rgb(254,254,254)" stroke="rgb(254,254,254)" stroke-width="1" opacity="1" d="M 164.5 416 L 166 418.5 L 164 417.5 L 164.5 416 Z " /><path fill="rgb(254,254,254)" stroke="rgb(254,254,254)" stroke-width="1" opacity="1" d="M 224.5 416 L 225 417.5 L 223 418.5 L 224.5 416 Z " /><path fill="rgb(254,254,254)" stroke="rgb(254,254,254)" stroke-width="1" opacity="1" d="M 121.5 418 L 120.5 420 L 121.5 418 Z " /><path fill="rgb(254,254,254)" stroke="rgb(254,254,254)" stroke-width="1" opacity="1" d="M 267.5 418 L 268.5 420 L 267.5 418 Z " /><path fill="rgb(254,254,254)" stroke="rgb(254,254,254)" stroke-width="1" opacity="1" d="M 63.5 419 L 66.5 423 L 63.5 419 Z " /><path fill="rgb(254,254,254)" stroke="rgb(254,254,254)" stroke-width="1" opacity="1" d="M 325.5 419 L 322.5 423 L 325.5 419 Z " /><path fill="rgb(254,254,254)" stroke="rgb(254,254,254)" stroke-width="1" opacity="1" d="M 427.5 419 L 423.5 424 L 420.5 425 L 420.5 424 L 427.5 419 Z " /><path fill="rgb(254,254,254)" stroke="rgb(254,254,254)" stroke-width="1" opacity="1" d="M 166.5 420 L 167.5 422 L 166.5 420 Z " /><path fill="rgb(254,254,254)" stroke="rgb(254,254,254)" stroke-width="1" opacity="1" d="M 222.5 420 L 220.5 423 L 222.5 420 Z " /><path fill="rgb(254,254,254)" stroke="rgb(254,254,254)" stroke-width="1" opacity="1" d="M 270.5 421 L 274 423.5 L 272.5 424 L 270.5 421 Z " /><path fill="rgb(254,254,254)" stroke="rgb(254,254,254)" stroke-width="1" opacity="1" d="M 169.5 422 L 170.5 424 L 169.5 422 Z " /><path fill="rgb(254,254,254)" stroke="rgb(254,254,254)" stroke-width="1" opacity="1" d="M 328.5 455 L 331 455.5 L 328.5 456 L 328.5 455 Z " /><path fill="rgb(254,254,254)" stroke="rgb(254,254,254)" stroke-width="1" opacity="1" d="M 366.5 455 L 369 455.5 L 366.5 456 L 366.5 455 Z " /><path fill="rgb(254,254,254)" stroke="rgb(254,254,254)" stroke-width="1" opacity="1" d="M 337.5 459 L 346 459.5 L 337.5 460 L 337.5 459 Z " /><path fill="rgb(254,254,254)" stroke="rgb(254,254,254)" stroke-width="1" opacity="1" d="M 351.5 459 L 360 459.5 L 351.5 460 L 351.5 459 Z " /><path fill="rgb(255,255,255)" stroke="rgb(255,255,255)" stroke-width="1" opacity="1" d="M 417.5 130 Q 437.2 155.3 451 186.5 L 448 184.5 L 431 158.5 L 417 131.5 L 417.5 130 Z " /><path fill="rgb(255,255,255)" stroke="rgb(255,255,255)" stroke-width="1" opacity="1" d="M 172.5 150 L 171.5 152 Q 142.8 173.3 108.5 189 L 109.5 187 Q 138.4 165.9 172.5 150 Z " /><path fill="rgb(255,255,255)" stroke="rgb(255,255,255)" stroke-width="1" opacity="1" d="M 352.5 262 L 423.5 262 L 429 265.5 L 430 269.5 L 426.5 274 L 350.5 274 L 347 270.5 Q 346 264 350.5 263 L 352.5 262 Z " /><path fill="rgb(255,255,255)" stroke="rgb(255,255,255)" stroke-width="1" opacity="1" d="M 382.5 290 L 424.5 290 L 429 293.5 L 430 297.5 L 427.5 301 L 425.5 302 L 381.5 302 L 378 299.5 L 377 295.5 L 380.5 291 L 382.5 290 Z " /><path fill="rgb(255,255,255)" stroke="rgb(255,255,255)" stroke-width="1" opacity="1" d="M 71.5 399 L 112.5 399 L 122 406.5 L 123 414.5 L 117.5 423 L 112.5 425 L 72.5 425 Q 66 423.5 63 418.5 L 61 411.5 Q 62.4 403.4 68.5 400 L 71.5 399 Z " /><path fill="rgb(255,255,255)" stroke="rgb(255,255,255)" stroke-width="1" opacity="1" d="M 173.5 399 L 214.5 399 L 223 404.5 Q 226.2 407.8 225 415.5 L 219.5 423 L 214.5 425 L 174.5 425 L 166 419.5 Q 162.8 416.2 164 408.5 L 169.5 401 L 173.5 399 Z " /><path fill="rgb(255,255,255)" stroke="rgb(255,255,255)" stroke-width="1" opacity="1" d="M 275.5 399 L 316.5 399 Q 322.3 400.3 325 404.5 Q 328.8 407.7 327 416.5 L 321.5 423 L 317.5 425 L 276.5 425 L 269 421 L 266 415.5 L 266 408.5 L 271.5 401 L 275.5 399 Z " /><path fill="rgb(255,255,255)" stroke="rgb(255,255,255)" stroke-width="1" opacity="1" d="M 377.5 399 L 419.5 399 L 428 405.5 L 430 413.5 Q 428.5 420 423.5 423 L 419.5 425 L 379.5 425 Q 373 423.5 370 418.5 Q 367.2 415.8 368 409.5 L 373.5 401 L 377.5 399 Z " /><path fill="rgb(255,255,255)" stroke="rgb(255,255,255)" stroke-width="1" opacity="1" d="M 331.5 455 L 365.5 455 L 366.5 456 L 380.5 456 L 387 457.5 L 376.5 458 L 375.5 459 L 351.5 459 L 346.5 460 L 345.5 459 L 321.5 459 L 320.5 458 L 310 457.5 Q 317.9 454.4 330.5 456 L 331.5 455 Z " /></svg>